<svg width="20" height="17" viewBox="0 0 20 17" fill="none" xmlns="http://www.w3.org/2000/svg">
<path d="M20 2.22479V14.2248C20 14.7748 19.804 15.2458 19.412 15.6378C19.02 16.0298 18.5493 16.2255 18 16.2248H2C1.45 16.2248 0.979002 16.0288 0.587002 15.6368C0.195002 15.2448 -0.000664969 14.7741 1.69779e-06 14.2248V2.22479C1.69779e-06 1.67479 0.196002 1.20379 0.588002 0.811794C0.980002 0.419794 1.45067 0.224128 2 0.224794H18C18.55 0.224794 19.021 0.420794 19.413 0.812794C19.805 1.20479 20.0007 1.67546 20 2.22479ZM2 4.22479H18V2.22479H2V4.22479ZM2 8.22479V14.2248H18V8.22479H2Z" fill="#C7C7C7"/>
</svg>
