<svg width="24" height="24" viewBox="0 0 24 24" fill="none" xmlns="http://www.w3.org/2000/svg">
<path fill-rule="evenodd" clip-rule="evenodd" d="M15.0006 21H16.6113C18.5611 21 20.1467 19.4273 20.1467 17.4946V10.1834C20.1358 9.36145 19.7524 8.60146 19.1052 8.10846L13.595 3.71417C12.3928 2.76166 10.7143 2.76166 9.50958 3.71585L4.03868 8.10595C3.37648 8.60731 2.99305 9.36899 2.98468 10.201V17.4946C2.98468 19.4273 4.57028 21 6.52004 21H8.13076C8.98886 21 9.69711 20.3522 9.78752 19.5235C9.8051 19.4666 9.81347 19.4063 9.81347 19.3436V16.7773C9.81347 16.471 10.0688 16.219 10.3777 16.2174H12.7938C13.1094 16.2174 13.3664 16.4685 13.3664 16.7773V19.3519C13.3664 20.2542 14.078 20.9782 15.0006 21Z" fill="#C7C7C7"/>
</svg>
