<svg width="18" height="19" viewBox="0 0 18 19" fill="none" xmlns="http://www.w3.org/2000/svg">
<path d="M12.372 0.224792C15.8311 0.224792 18 2.37783 18 5.85276V7.94247L17.9937 8.03592C17.9481 8.37205 17.66 8.63112 17.3113 8.63112H17.3034L17.1947 8.62242C17.0518 8.59933 16.9189 8.53106 16.8164 8.42618C16.6883 8.29507 16.6184 8.11782 16.6227 7.93455V5.85276C16.6227 3.11397 15.1108 1.6021 12.372 1.6021H5.62797C2.88127 1.6021 1.37731 3.11397 1.37731 5.85276V12.6047C1.37731 15.3435 2.88918 16.8475 5.62797 16.8475H12.372C15.1187 16.8475 16.6227 15.3356 16.6227 12.6047C16.6227 12.2244 16.931 11.9161 17.3113 11.9161C17.6917 11.9161 18 12.2244 18 12.6047C18 16.0718 15.847 18.2248 12.3799 18.2248H5.62797C2.15303 18.2248 0 16.0718 0 12.6047V5.85276C0 2.37783 2.15303 0.224792 5.62797 0.224792H12.372ZM5.17678 7.02426C5.35946 7.03046 5.53218 7.10902 5.6569 7.24264C5.78162 7.37627 5.8481 7.55399 5.84169 7.73667V13.4913C5.82857 13.8716 5.50962 14.1693 5.12929 14.1562C4.74895 14.1431 4.45126 13.8241 4.46438 13.4438V7.68126L4.47665 7.57356C4.50426 7.4324 4.57613 7.3026 4.68323 7.20383C4.8171 7.08036 4.99487 7.01569 5.17678 7.02426ZM9.03166 4.32506C9.41199 4.32506 9.72032 4.63338 9.72032 5.01371V13.4517C9.72032 13.832 9.41199 14.1404 9.03166 14.1404C8.65133 14.1404 8.34301 13.832 8.34301 13.4517V5.01371C8.34301 4.63338 8.65133 4.32506 9.03166 4.32506ZM12.847 10.0638C13.2273 10.0638 13.5356 10.3722 13.5356 10.7525V13.4438C13.5356 13.8241 13.2273 14.1324 12.847 14.1324C12.4666 14.1324 12.1583 13.8241 12.1583 13.4438V10.7525C12.1583 10.3722 12.4666 10.0638 12.847 10.0638Z" fill="#C7C7C7"/>
</svg>
