<svg width="17" height="16" viewBox="0 0 17 16" fill="none" xmlns="http://www.w3.org/2000/svg">
<path d="M11.6316 9.33333C12.0193 9.33333 12.3399 9.20741 12.5934 8.95555C12.8469 8.7037 12.9737 8.38519 12.9737 8C12.9737 7.61482 12.8469 7.2963 12.5934 7.04445C12.3399 6.79259 12.0193 6.66667 11.6316 6.66667C11.2439 6.66667 10.9232 6.79259 10.6697 7.04445C10.4162 7.2963 10.2895 7.61482 10.2895 8C10.2895 8.38519 10.4162 8.7037 10.6697 8.95555C10.9232 9.20741 11.2439 9.33333 11.6316 9.33333ZM1.78947 16C1.29737 16 0.875949 15.8258 0.525212 15.4773C0.174475 15.1289 -0.000594972 14.7105 1.51908e-06 14.2222V1.77778C1.51908e-06 1.28889 0.17537 0.870223 0.526107 0.521779C0.876843 0.173335 1.29797 -0.000591083 1.78947 1.50915e-06H14.3158C14.8079 1.50915e-06 15.2293 0.174224 15.5801 0.522668C15.9308 0.871112 16.1059 1.28948 16.1053 1.77778V4H14.3158V1.77778H1.78947V14.2222H14.3158V12H16.1053V14.2222C16.1053 14.7111 15.9299 15.1298 15.5792 15.4782C15.2284 15.8267 14.8073 16.0006 14.3158 16H1.78947ZM8.94737 12.4444C8.45526 12.4444 8.03384 12.2702 7.6831 11.9218C7.33237 11.5733 7.1573 11.155 7.1579 10.6667V5.33333C7.1579 4.84445 7.33326 4.42578 7.684 4.07733C8.03474 3.72889 8.45586 3.55496 8.94737 3.55556H15.2105C15.7026 3.55556 16.1241 3.72978 16.4748 4.07822C16.8255 4.42667 17.0006 4.84504 17 5.33333V10.6667C17 11.1556 16.8246 11.5742 16.4739 11.9227C16.1232 12.2711 15.702 12.445 15.2105 12.4444H8.94737ZM15.2105 10.6667V5.33333H8.94737V10.6667H15.2105Z" fill="#C7C7C7"/>
</svg>
